/* XPM */
static char *result[] = {
/* columns rows colors chars-per-pixel */
"100 100 38 1 ",
"  c #6D3D43",
". c #6E3E43",
"X c #6F3E43",
"o c #6B3A44",
"O c #6D3C44",
"+ c #84513D",
"@ c #8F5A39",
"# c #905B39",
"$ c #F3B115",
"% c #F4B318",
"& c #F4B319",
"* c #F3B41B",
"= c #F4B41A",
"- c #F4B41B",
"; c #F5B51B",
": c #F7B61A",
"> c #F7B71A",
", c #C68B29",
"< c #C68C29",
"1 c #C78C29",
"2 c #E5A620",
"3 c #F5B925",
"4 c #F5BB2A",
"5 c #F6BB2A",
"6 c #F6BB2B",
"7 c #F7C138",
"8 c #F8C947",
"9 c #F8C948",
"0 c #FAD35C",
"q c #FBD45E",
"w c #FBD562",
"e c #FEE27E",
"r c #FEE37E",
"t c #FEE480",
"y c #FEE481",
"u c #FEE583",
"i c #FEE584",
"p c None",
/* pixels */
"pppppppppppppppppppppppppppppppppppppppppppppppppppppppppppppppppppppppppppppppppppppppppppppppppppp",
"pppppppppppppppppppppppppppppppppppppppppppppppppppppppppppppppppppppppppppppppppppppppppppppppppppp",
"pppppppppppppppppppppppppppppppppppppppppppppppppppppppppppppppppppppppppppppppppppppppppppppppppppp",
"pppppppppppppppppppppppppppppppppppppppppppppppppppppppppppppppppppppppppppppppppppppppppppppppppppp",
"pppppppppppppppppppppppppppppppppppppppppppppppppppppppppppppppppppppppppppppppppppppppppppppppppppp",
"pppppppppppppppppppppppppppppppppppppppppppppppppppppppppppppppppppppppppppppppppppppppppppppppppppp",
"pppppppppppppppppppppppppppppppppppppppppppppppppppppppppppppppppppppppppppppppppppppppppppppppppppp",
"pppppppppppppppppppppppppppppppppppppppppppppppppppppppppppppppppppppppppppppppppppppppppppppppppppp",
"pppppppppppppppppppppppppppppppppppppppppppppppppppppppppppppppppppppppppppppppppppppppppppppppppppp",
"pppppppppppppppppppppppppppppppppppppppppppppppppppppppppppppppppppppppppppppppppppppppppppppppppppp",
"pppppppppppppppppppppppppppppppppppppppppppppppppppppppppppppppppppppppppppppppppppppppppppppppppppp",
"pppppppppppppppppppppppppppppppppppppppppppppppppppppppppppppppppppppppppppppppppppppppppppppppppppp",
"pppppppppppppppppppppppppppppppppppppppppppppppppppppppppppppppppppppppppppppppppppppppppppppppppppp",
"pppppppppppppppppppppppppppppppppppppppppppppppppppppppppppppppppppppppppppppppppppppppppppppppppppp",
"pppppppppppppppppppppppppppppppppppppppppppppppppppppppppppppppppppppppppppppppppppppppppppppppppppp",
"pppppppppppppppppppppppppppppppppppppppppppppppppppppppppppppppppppppppppppppppppppppppppppppppppppp",
"pppppppppppppppppppppppppppppppppppppppppppppppppppppppppppppppppppppppppppppppppppppppppppppppppppp",
"ppppppppppppppppppppppppppppXXXXXXXXXXXXXXXXXXXXXXXXXXXXXXXXXXXXXXXXXXXXpppppppppppppppppppppppppppp",
"ppppppppppppppppppppppppppppXXXXXXXXXXXXXXXXXXXXXXXXXXXXXXXXXXXXXXXXXXXXpppppppppppppppppppppppppppp",
"ppppppppppppppppppppppppppppXXXXXXXXXXXXXXXXXXXXXXXXXXXXXXXXXXXXXXXXXXXXpppppppppppppppppppppppppppp",
"ppppppppppppppppppppppppppppXXXXXXXXXXXXXXXXXXXXXXXXXXXXXXXXXXXXXXXXXXXXpppppppppppppppppppppppppppp",
"ppppppppppppppppppppppppppppXXXXXXXXXXXXXXXXXXXXXXXXXXXXXXXXXXXXXXXXXXXXpppppppppppppppppppppppppppp",
"ppppppppppppppppppppppXXXXXXXXXXXXXXXXXXXXXXXXXXXXXXXXXXXXXXXXXXXXXXXXXXXXXXXXpppppppppppppppppppppp",
"ppppppppppppppppppppppXXXXXXXXXXXXXXXXXXXXXXXXXXXXXXXXXXXXXXXXXXXXXXXXXXXXXXXXpppppppppppppppppppppp",
"ppppppppppppppppppppppXXXXXXXXXXXXXXXXXXXXXXXXXXXXXXXXXXXXXXXXXXXXXXXXXXXXXXXXpppppppppppppppppppppp",
"ppppppppppppppppppppppXXXXXXXXXXXXXXXXXXXXXXXXXXXXXXXXXXXXXXXXXXXXXXXXXXXXXXXXpppppppppppppppppppppp",
"ppppppppppppppppppppppXXXXXXXXXXX OOOOOOOOOOOOOOOOOOOOOOOOOOOOOOOO XXXXXXXXXXXpppppppppppppppppppppp",
"ppppppppppppppppppppppXXXXXXXXXX.+#@@@@@@@@@@@@@@@@@@@@@@@@@@@@@@#+.XXXXXXXXXXpppppppppppppppppppppp",
"pppppppppppppppppXXXXXXXXXXXXXXXO<:******************************:<OXXXXXXXXXXXXXXXppppppppppppppppp",
"pppppppppppppppppXXXXXXXXXXXXXXXO1>------------------------------>1OXXXXXXXXXXXXXXXppppppppppppppppp",
"pppppppppppppppppXXXXXXXXXXXXXXXO1>------------------------------>1OXXXXXXXXXXXXXXXppppppppppppppppp",
"pppppppppppppppppXXXXXXXXXXXXXXXO1>------------------------------>1OXXXXXXXXXXXXXXXppppppppppppppppp",
"pppppppppppppppppXXXXXXXXXX.OOOOo,>----&&&&&&&&&&&&&&&&&&&&&&---->,oOOOO.XXXXXXXXXXppppppppppppppppp",
"pppppppppppppppppXXXXXXXXX +<111,2;--=30qqqqqqqqqqqqqqqqqqqq03=--;2,111<+ XXXXXXXXXppppppppppppppppp",
"pppppppppppppppppXXXXXXXXXO#:>>>>;---=6tiiiiiiiiiiiiiiiiiiiit6=---;>>>>:#OXXXXXXXXXppppppppppppppppp",
"pppppppppppppppppXXXXXXXXXO@*--------=5eyyyyyyyyyyyyyyyyyyyye5=--------*@OXXXXXXXXXppppppppppppppppp",
"pppppppppppppppppXXXXXXXXXO@*--------=5eyyyyyyyyyyyyyyyyyyyye5=--------*@OXXXXXXXXXppppppppppppppppp",
"pppppppppppppppppXXXXXXXXXO@*----====&4eyyyyyyyyyyyyyyyyyyyye4&====----*@OXXXXXXXXXppppppppppppppppp",
"pppppppppppppppppXXXXXXXXXO@*----365547ryyyyyyyyyyyyyyyyyyyyr745563----*@OXXXXXXXXXppppppppppppppppp",
"pppppppppppppppppXXXXXXXXXO@*---&0teeeryyyyyyyyyyyyyyyyyyyyyyreeet0&---*@OXXXXXXXXXppppppppppppppppp",
"pppppppppppppppppXXXXXXXXXO@*---&qiyyyyyyyyyyyyyyyyyyyyyyyyyyyyyyiq&---*@OXXXXXXXXXppppppppppppppppp",
"pppppppppppppppppXXXXXXXXXO@*---&qiyyyyyyyyyyyyyyyyyyyyyyyyyyyyyyiq&---*@OXXXXXXXXXppppppppppppppppp",
"pppppppppppppppppXXXXXXXXXO@*---&qiyyyyyyyyyyyyyyyyyyyyyyyyyyyyyyiq&---*@OXXXXXXXXXppppppppppppppppp",
"pppppppppppppppppXXXXXXXXXO@*---&qiyyyyyyyyyuiiiiiiiiiiuyyyyyyyyyiq&---*@OXXXXXXXXXppppppppppppppppp",
"pppppppppppppppppXXXXXXXXXO@*---&qiyyyyyyyyuw8999999998wuyyyyyyyyiq&---*@OXXXXXXXXXppppppppppppppppp",
"pppppppppppppppppXXXXXXXXXO@*---&qiyyyyyyyyi8$%%%%%%%%$8iyyyyyyyyiq&---*@OXXXXXXXXXppppppppppppppppp",
"pppppppppppppppppXXXXXXXXXO@*---&qiyyyyyyyyi9%--------%9iyyyyyyyyiq&---*@OXXXXXXXXXppppppppppppppppp",
"pppppppppppppppppXXXXXXXXXO@*---&qiyyyyyyyyi9%--------%9iyyyyyyyyiq&---*@OXXXXXXXXXppppppppppppppppp",
"pppppppppppppppppXXXXXXXXXO@*---&qiyyyyyyyyi9%--------%9iyyyyyyyyiq&---*@OXXXXXXXXXppppppppppppppppp",
"pppppppppppppppppXXXXXXXXXO@*---&qiyyyyyyyyi9%--------%9iyyyyyyyyiq&---*@OXXXXXXXXXppppppppppppppppp",
"pppppppppppppppppXXXXXXXXXO@*---&qiyyyyyyyyi9%--------%9iyyyyyyyyiq&---*@OXXXXXXXXXppppppppppppppppp",
"pppppppppppppppppXXXXXXXXXO@*---&qiyyyyyyyyi9%--------%9iyyyyyyyyiq&---*@OXXXXXXXXXppppppppppppppppp",
"pppppppppppppppppXXXXXXXXXO@*---&qiyyyyyyyyi9%--------%9iyyyyyyyyiq&---*@OXXXXXXXXXppppppppppppppppp",
"pppppppppppppppppXXXXXXXXXO@*---&qiyyyyyyyyi9%--------%9iyyyyyyyyiq&---*@OXXXXXXXXXppppppppppppppppp",
"pppppppppppppppppXXXXXXXXXO@*---&qiyyyyyyyyi8$%%%%%%%%$8iyyyyyyyyiq&---*@OXXXXXXXXXppppppppppppppppp",
"pppppppppppppppppXXXXXXXXXO@*---&qiyyyyyyyyuw8999999998wuyyyyyyyyiq&---*@OXXXXXXXXXppppppppppppppppp",
"pppppppppppppppppXXXXXXXXXO@*---&qiyyyyyyyyyuiiiiiiiiiiuyyyyyyyyyiq&---*@OXXXXXXXXXppppppppppppppppp",
"pppppppppppppppppXXXXXXXXXO@*---&qiyyyyyyyyyyyyyyyyyyyyyyyyyyyyyyiq&---*@OXXXXXXXXXppppppppppppppppp",
"pppppppppppppppppXXXXXXXXXO@*---&qiyyyyyyyyyyyyyyyyyyyyyyyyyyyyyyiq&---*@OXXXXXXXXXppppppppppppppppp",
"pppppppppppppppppXXXXXXXXXO@*---&qiyyyyyyyyyyyyyyyyyyyyyyyyyyyyyyiq&---*@OXXXXXXXXXppppppppppppppppp",
"pppppppppppppppppXXXXXXXXXO@*---&0teeeryyyyyyyyyyyyyyyyyyyyyyreeet0&---*@OXXXXXXXXXppppppppppppppppp",
"pppppppppppppppppXXXXXXXXXO@*----365547ryyyyyyyyyyyyyyyyyyyyr745563----*@OXXXXXXXXXppppppppppppppppp",
"pppppppppppppppppXXXXXXXXXO@*----====&4eyyyyyyyyyyyyyyyyyyyye4&====----*@OXXXXXXXXXppppppppppppppppp",
"pppppppppppppppppXXXXXXXXXO@*--------=5eyyyyyyyyyyyyyyyyyyyye5=--------*@OXXXXXXXXXppppppppppppppppp",
"pppppppppppppppppXXXXXXXXXO@*--------=5eyyyyyyyyyyyyyyyyyyyye5=--------*@OXXXXXXXXXppppppppppppppppp",
"pppppppppppppppppXXXXXXXXXO#:>>>>;---=6tiiiiiiiiiiiiiiiiiiiit6=---;>>>>:#OXXXXXXXXXppppppppppppppppp",
"pppppppppppppppppXXXXXXXXX +<111,2;--=30qqqqqqqqqqqqqqqqqqqq03=--;2,111<+ XXXXXXXXXppppppppppppppppp",
"pppppppppppppppppXXXXXXXXXX.OOOOo,>----&&&&&&&&&&&&&&&&&&&&&&---->,oOOOO.XXXXXXXXXXppppppppppppppppp",
"pppppppppppppppppXXXXXXXXXXXXXXXO1>------------------------------>1OXXXXXXXXXXXXXXXppppppppppppppppp",
"pppppppppppppppppXXXXXXXXXXXXXXXO1>------------------------------>1OXXXXXXXXXXXXXXXppppppppppppppppp",
"pppppppppppppppppXXXXXXXXXXXXXXXO1>------------------------------>1OXXXXXXXXXXXXXXXppppppppppppppppp",
"pppppppppppppppppXXXXXXXXXXXXXXXO<:******************************:<OXXXXXXXXXXXXXXXppppppppppppppppp",
"ppppppppppppppppppppppXXXXXXXXXX.+#@@@@@@@@@@@@@@@@@@@@@@@@@@@@@@#+.XXXXXXXXXXpppppppppppppppppppppp",
"ppppppppppppppppppppppXXXXXXXXXXX OOOOOOOOOOOOOOOOOOOOOOOOOOOOOOOO XXXXXXXXXXXpppppppppppppppppppppp",
"ppppppppppppppppppppppXXXXXXXXXXXXXXXXXXXXXXXXXXXXXXXXXXXXXXXXXXXXXXXXXXXXXXXXpppppppppppppppppppppp",
"ppppppppppppppppppppppXXXXXXXXXXXXXXXXXXXXXXXXXXXXXXXXXXXXXXXXXXXXXXXXXXXXXXXXpppppppppppppppppppppp",
"ppppppppppppppppppppppXXXXXXXXXXXXXXXXXXXXXXXXXXXXXXXXXXXXXXXXXXXXXXXXXXXXXXXXpppppppppppppppppppppp",
"ppppppppppppppppppppppXXXXXXXXXXXXXXXXXXXXXXXXXXXXXXXXXXXXXXXXXXXXXXXXXXXXXXXXpppppppppppppppppppppp",
"ppppppppppppppppppppppppppppXXXXXXXXXXXXXXXXXXXXXXXXXXXXXXXXXXXXXXXXXXXXpppppppppppppppppppppppppppp",
"ppppppppppppppppppppppppppppXXXXXXXXXXXXXXXXXXXXXXXXXXXXXXXXXXXXXXXXXXXXpppppppppppppppppppppppppppp",
"ppppppppppppppppppppppppppppXXXXXXXXXXXXXXXXXXXXXXXXXXXXXXXXXXXXXXXXXXXXpppppppppppppppppppppppppppp",
"ppppppppppppppppppppppppppppXXXXXXXXXXXXXXXXXXXXXXXXXXXXXXXXXXXXXXXXXXXXpppppppppppppppppppppppppppp",
"ppppppppppppppppppppppppppppXXXXXXXXXXXXXXXXXXXXXXXXXXXXXXXXXXXXXXXXXXXXpppppppppppppppppppppppppppp",
"pppppppppppppppppppppppppppppppppppppppppppppppppppppppppppppppppppppppppppppppppppppppppppppppppppp",
"pppppppppppppppppppppppppppppppppppppppppppppppppppppppppppppppppppppppppppppppppppppppppppppppppppp",
"pppppppppppppppppppppppppppppppppppppppppppppppppppppppppppppppppppppppppppppppppppppppppppppppppppp",
"pppppppppppppppppppppppppppppppppppppppppppppppppppppppppppppppppppppppppppppppppppppppppppppppppppp",
"pppppppppppppppppppppppppppppppppppppppppppppppppppppppppppppppppppppppppppppppppppppppppppppppppppp",
"pppppppppppppppppppppppppppppppppppppppppppppppppppppppppppppppppppppppppppppppppppppppppppppppppppp",
"pppppppppppppppppppppppppppppppppppppppppppppppppppppppppppppppppppppppppppppppppppppppppppppppppppp",
"pppppppppppppppppppppppppppppppppppppppppppppppppppppppppppppppppppppppppppppppppppppppppppppppppppp",
"pppppppppppppppppppppppppppppppppppppppppppppppppppppppppppppppppppppppppppppppppppppppppppppppppppp",
"pppppppppppppppppppppppppppppppppppppppppppppppppppppppppppppppppppppppppppppppppppppppppppppppppppp",
"pppppppppppppppppppppppppppppppppppppppppppppppppppppppppppppppppppppppppppppppppppppppppppppppppppp",
"pppppppppppppppppppppppppppppppppppppppppppppppppppppppppppppppppppppppppppppppppppppppppppppppppppp",
"pppppppppppppppppppppppppppppppppppppppppppppppppppppppppppppppppppppppppppppppppppppppppppppppppppp",
"pppppppppppppppppppppppppppppppppppppppppppppppppppppppppppppppppppppppppppppppppppppppppppppppppppp",
"pppppppppppppppppppppppppppppppppppppppppppppppppppppppppppppppppppppppppppppppppppppppppppppppppppp",
"pppppppppppppppppppppppppppppppppppppppppppppppppppppppppppppppppppppppppppppppppppppppppppppppppppp",
"pppppppppppppppppppppppppppppppppppppppppppppppppppppppppppppppppppppppppppppppppppppppppppppppppppp"
};
