/* XPM */
static char *result[] = {
/* columns rows colors chars-per-pixel */
"100 100 71 1 ",
"  c #6C3C42",
". c #6D3C42",
"X c #6D3D42",
"o c #6D3D43",
"O c #6E3D43",
"+ c #6E3E43",
"@ c #6F3E43",
"# c #703F43",
"$ c #713F44",
"% c #724044",
"& c #744045",
"* c #754245",
"= c #764245",
"- c #774345",
"; c #764445",
": c #7B4747",
"> c #7C4747",
", c #824C49",
"< c #834D49",
"1 c #844D49",
"2 c #844E49",
"3 c #894D4B",
"4 c #8A4E4B",
"5 c #89534A",
"6 c #8D574B",
"7 c #8F534D",
"8 c #93534E",
"9 c #94534E",
"0 c #94544F",
"q c #91584C",
"w c #985650",
"e c #985950",
"r c #9C5B51",
"t c #9D5952",
"y c #9E5952",
"u c #9F5A52",
"i c #A05A52",
"p c #A15B52",
"a c #A15E52",
"s c #A26352",
"d c #A46053",
"f c #A36452",
"g c #A86254",
"h c #A86354",
"j c #A96355",
"k c #AA6355",
"l c #AB6455",
"z c #B67258",
"x c #B77258",
"c c #BF785A",
"v c #BF795A",
"b c #C9805D",
"n c #C9805E",
"m c #CB815E",
"M c #CC815E",
"N c #CC825E",
"B c #CD825F",
"V c #CE835F",
"C c #CE845F",
"Z c #DD9860",
"A c #E29D61",
"S c #E39E62",
"D c #EEA665",
"F c #EFA765",
"G c #F0A765",
"H c #F4AC66",
"J c #F5AD66",
"K c #F6AD66",
"L c #F6AE67",
"P c #F7AE67",
"I c None",
/* pixels */
"IIIIIIIIIIIIIIIIIIIIIIIIIIIIIIIIIIIIIIIIIIIIIIIIIIIIIIIIIIIIIIIIIIIIIIIIIIIIIIIIIIIIIIIIIIIIIIIIIIII",
"IIIIIIIIIIIIIIIIIIIIIIIIIIIIIIIIIIIIIIIIIIIIIIIIIIIIIIIIIIIIIIIIIIIIIIIIIIIIIIIIIIIIIIIIIIIIIIIIIIII",
"IIIIIIIIIIIIIIIIIIIIIIIIIIIIIIIIIIIIIIIIIIIIIIIIIIIIIIIIIIIIIIIIIIIIIIIIIIIIIIIIIIIIIIIIIIIIIIIIIIII",
"IIIIIIIIIIIIIIIIIIIIIIIIIIIIIIIIIIIIIIIIIIIIIIIIIIIIIIIIIIIIIIIIIIIIIIIIIIIIIIIIIIIIIIIIIIIIIIIIIIII",
"IIIIIIIIIIIIIIIIIIIIIIIIIIIIIIIIIIIIIIIIIIIIIIIIIIIIIIIIIIIIIIIIIIIIIIIIIIIIIIIIIIIIIIIIIIIIIIIIIIII",
"IIIIIIIIIIIIIIIIIIIIIIIIIIIIIIIIIIIIIIIIIIIIIIIIIIIIIIIIIIIIIIIIIIIIIIIIIIIIIIIIIIIIIIIIIIIIIIIIIIII",
"IIIIIIIIIIIIIIIIIIIIIIIIIIIIIIIIIIIIIIIIIIIIIIIIIIIIIIIIIIIIIIIIIIIIIIIIIIIIIIIIIIIIIIIIIIIIIIIIIIII",
"IIIIIIIIIIIIIIIIIIIIIIIIIIIIIIIIIIIIIIIIIIIIIIIIIIIIIIIIIIIIIIIIIIIIIIIIIIIIIIIIIIIIIIIIIIIIIIIIIIII",
"IIIIIIIIIIIIIIIIIIIIIIIIIIIIIIIIIIIIIIIIIIIIIIIIIIIIIIIIIIIIIIIIIIIIIIIIIIIIIIIIIIIIIIIIIIIIIIIIIIII",
"IIIIIIIIIIIIIIIIIIIIIIIIIIIIIIIIIIIIIIIIIIIIIIIIIIIIIIIIIIIIIIIIIIIIIIIIIIIIIIIIIIIIIIIIIIIIIIIIIIII",
"IIIIIIIIIIIIIIIIIIIIIIIIIIIIIIIIIIIIIIIIIIIIIIIIIIIIIIIIIIIIIIIIIIIIIIIIIIIIIIIIIIIIIIIIIIIIIIIIIIII",
"IIIIIIIIIIIIIIIIIIIIIIIIIIIIIIIIIIIIIIIIIIIIIIIIIIIIIIIIIIIIIIIIIIIIIIIIIIIIIIIIIIIIIIIIIIIIIIIIIIII",
"IIIIIIIIIIIIIIIIIIIIIIIIIIIIIIIIIIIIIIIIIIIIIIIIIIIIIIIIIIIIIIIIIIIIIIIIIIIIIIIIIIIIIIIIIIIIIIIIIIII",
"IIIIIIIIIIIIIIIIIIIIIIIIIIIIIIIIIIIIIIIIIIIIIIIIIIIIIIIIIIIIIIIIIIIIIIIIIIIIIIIIIIIIIIIIIIIIIIIIIIII",
"IIIIIIIIIIIIIIIIIIIIIIIIIIIIIIIIIIIIIIIIIIIIIIIIIIIIIIIIIIIIIIIIIIIIIIIIIIIIIIIIIIIIIIIIIIIIIIIIIIII",
"IIIIIIIIIIIIIIIIIIIIIIIIIIIIIIIIIIIIIIIIIIIIIIIIIIIIIIIIIIIIIIIIIIIIIIIIIIIIIIIIIIIIIIIIIIIIIIIIIIII",
"IIIIIIIIIIIIIIIIIIIIIIIIIIIIIIIIIIIIIIIIIIIIIIIIIIIIIIIIIIIIIIIIIIIIIIIIIIIIIIIIIIIIIIIIIIIIIIIIIIII",
"IIIIII@@@@@@@@@@@@@@@@@@@@@@IIIIIIIIIIIIIIIIIIIIIIIIIIIIIIIIIIIIIIIIIIII@@@@@@@@@@@@@@@@@@@@@@IIIIII",
"IIIIII@@@@@@@@@@@@@@@@@@@@@@IIIIIIIIIIIIIIIIIIIIIIIIIIIIIIIIIIIIIIIIIIII@@@@@@@@@@@@@@@@@@@@@@IIIIII",
"IIIIII@@@@@@@@@@@@@@@@@@@@@@IIIIIIIIIIIIIIIIIIIIIIIIIIIIIIIIIIIIIIIIIIII@@@@@@@@@@@@@@@@@@@@@@IIIIII",
"IIIIII@@@@@@@@@@@@@@@@@@@@@@IIIIIIIIIIIIIIIIIIIIIIIIIIIIIIIIIIIIIIIIIIII@@@@@@@@@@@@@@@@@@@@@@IIIIII",
"IIIIII@@@@@@@@@@@@@@@@@@@@@@IIIIIIIIIIIIIIIIIIIIIIIIIIIIIIIIIIIIIIIIIIII@@@@@@@@@@@@@@@@@@@@@@IIIIII",
"@@@@@@@@@@@@@@@@@@@@@@@@@@@@@@@@@IIIIIIIIIIIIIIIIIIIIIIIIIIIIIIIIII@@@@@@@@@@@@@@@@@@@@@@@@@@@@@@@@@",
"@@@@@@@@@@@@@@@@@@@@@@@@@@@@@@@@@IIIIIIIIIIIIIIIIIIIIIIIIIIIIIIIIII@@@@@@@@@@@@@@@@@@@@@@@@@@@@@@@@@",
"@@@@@@@@@@@@@@@@@@@@@@@@@@@@@@@@@IIIIIIIIIIIIIIIIIIIIIIIIIIIIIIIIII@@@@@@@@@@@@@@@@@@@@@@@@@@@@@@@@@",
"@@@@@@@@@@@@@@@@@@@@@@@@@@@@@@@@@IIIIIIIIIIIIIIIIIIIIIIIIIIIIIIIIII@@@@@@@@@@@@@@@@@@@@@@@@@@@@@@@@@",
"@@@@@@@@@@@o..........@@@@@@@@@@@IIIIIIIIIIIIIIIIIIIIIIIIIIIIIIIIII@@@@@@@@@@@..........o@@@@@@@@@@@",
"@@@@@@@@@@#56666666666;@@@@@@@@@@IIIIIIIIIIIIIIIIIIIIIIIIIIIIIIIIII@@@@@@@@@@;66666666665#@@@@@@@@@@",
"@@@@@@@@@@%SLJJJJJJJJP6.@@@@@@@@@@@@@@@@@@@@@@@@@@@@@@@@@@@@@@@@@@@@@@@@@@@@.6PJJJJJJJJLS%@@@@@@@@@@",
"@@@@@@@@@@%AJHHHHHHHHJ6.@@@@@@@@@@@@@@@@@@@@@@@@@@@@@@@@@@@@@@@@@@@@@@@@@@@@.6JHHHHHHHHJA%@@@@@@@@@@",
"@@@@@@@@@@%AJHHHHHHHHJ6.@@@@@@@@@@@@@@@@@@@@@@@@@@@@@@@@@@@@@@@@@@@@@@@@@@@@.6JHHHHHHHHJA%@@@@@@@@@@",
"@@@@@@@@@@%AJHHHHHHHHJ6.@@@@@@@@@@@@@@@@@@@@@@@@@@@@@@@@@@@@@@@@@@@@@@@@@@@@.6JHHHHHHHHJA%@@@@@@@@@@",
"@@@@@@@@@@%AJHHHHHHHHJ6.@@@@@@@@@@@@@@@@@@@@@@@@@@@@@@@@@@@@@@@@@@@@@@@@@@@@.6JHHHHHHHHJA%@@@@@@@@@@",
"@@@@@@@@@@%AJHHHHHHHHJ6.@@@@@@@@@@@@@@@@@@@@@@@@@@@@@@@@@@@@@@@@@@@@@@@@@@@@.6JHHHHHHHHJA%@@@@@@@@@@",
"@@@@@@@@@@%AJHHHHHHHHJ6.@@@@@@@@@@@@@@@@@@@@@@@@@@@@@@@@@@@@@@@@@@@@@@@@@@@@.6JHHHHHHHHJA%@@@@@@@@@@",
"@@@@@@@@@@%AJHHHHHHHHJ6.@@@@@@@@@@@@@@@@@@@@@@@@@@@@@@@@@@@@@@@@@@@@@@@@@@@@.6JHHHHHHHHJA%@@@@@@@@@@",
"@@@@@@@@@@%AJHHHHHHHHJ6.@@@@@@@@@@@@@@@@@@@@@@@@@@@@@@@@@@@@@@@@@@@@@@@@@@@@.6JHHHHHHHHJA%@@@@@@@@@@",
"@@@@@@@@@@%AJHHHHHHHHK6.@@@@++++++++++++++++++++++++++++++++++++++++++++@@@@.6KHHHHHHHHJA%@@@@@@@@@@",
"@@@@@@@@@@%ZFDDDDDDDDGq&==*->::::::::::::::::::::::::::::::::::::::::::>-*==&qGDDDDDDDDFZ%@@@@@@@@@@",
"@@@@@@@@@@$vNNNNNNNNNNhtyytgnbbbbbbbbbbbbbbbbbbbbbbbbbbbbbbbbbbbbbbbbbbngtyythNNNNNNNNNNv$@@@@@@@@@@",
"@@@@@@@@@@$cMmmmmmmmmmjyuuyjmmmmmmmmmmmmmmmmmmmmmmmmmmmmmmmmmmmmmmmmmmmmjyuuyjmmmmmmmmmMc$@@@@@@@@@@",
"@@@@@@@@@@$cMmmmmmmmmmjyuuyjmmmmmmmmmmmmmmmmmmmmmmmmmmmmmmmmmmmmmmmmmmmmjyuuyjmmmmmmmmmMc$@@@@@@@@@@",
"@@@@@@@@@@$cMmmmmmmmmmjyuuyjmmmmmmmmmmmmmmmmmmmmmmmmmmmmmmmmmmmmmmmmmmmmjyuuyjmmmmmmmmmMc$@@@@@@@@@@",
"@@@@@@@@@@$cMmmmmmmmmmjyuuyjmmmmmmmmmmmmmmmmmmmmmmmmmmmmmmmmmmmmmmmmmmmmjyuuyjmmmmmmmmmMc$@@@@@@@@@@",
"@@@@@@@@@@$cMmmmmmmmmmjyuuyjmmmmmmmmmmmmmmmmmmmmmmmmmmmmmmmmmmmmmmmmmmmmjyuuyjmmmmmmmmmMc$@@@@@@@@@@",
"@@@@@@@@@@$cMmmmmmmmmmjyuuyjmmmmmmmmmmmmmmmmmmmmmmmmmmmmmmmmmmmmmmmmmmmmjyuuyjmmmmmmmmmMc$@@@@@@@@@@",
"@@@@@@@@@@$cMmmmmmmmmmjyuuyjmmmmmmmmmmmmmmmmmmmmmmmmmmmmmmmmmmmmmmmmmmmmjyuuyjmmmmmmmmmMc$@@@@@@@@@@",
"@@@@@@@@@@$cMmmmmmmmmmjyuuyjmmmmmmmmmmmmmmmmmmmmmmmmmmmmmmmmmmmmmmmmmmmmjyuuyjmmmmmmmmmMc$@@@@@@@@@@",
"@@@@@@@@@@$cMmmmmmmmmmjyuuyjmmmmmmmmmmmmmmmmmmmmmmmmmmmmmmmmmmmmmmmmmmmmjyuuyjmmmmmmmmmMc$@@@@@@@@@@",
"@@@@@@@@@@$cMmmmmmmmmmjyuuyjmmmmmmmmmmmmmmmmmmmmmmmmmmmmmmmmmmmmmmmmmmmmjyuuyjmmmmmmmmmMc$@@@@@@@@@@",
"@@@@@@@@@@$cMmmmmmmmmmjyuuyjmmmmmmmmmmmmmmmmmmmmmmmmmmmmmmmmmmmmmmmmmmmmjyuuyjmmmmmmmmmMc$@@@@@@@@@@",
"@@@@@@@@@@$cMmmmmmmmmmjyuuyjmmmmmmmmmmmmmmmmmmmmmmmmmmmmmmmmmmmmmmmmmmmmjyuuyjmmmmmmmmmMc$@@@@@@@@@@",
"@@@@@@@@@@$cMmmmmmmmmmjyuuyjmmmmmmmmmmmmmmmmmmmmmmmmmmmmmmmmmmmmmmmmmmmmjyuuyjmmmmmmmmmMc$@@@@@@@@@@",
"@@@@@@@@@@$cMmmmmmmmmmjyuuyjmmmmmmmmmmmmmmmmmmmmmmmmmmmmmmmmmmmmmmmmmmmmjyuuyjmmmmmmmmmMc$@@@@@@@@@@",
"@@@@@@@@@@$cMmmmmmmmmmkippilCVVVVVVVVVVVVVVVVVVVVVVVVVVVVVVVVVVVVVVVVVVClippikmmmmmmmmmMc$@@@@@@@@@@",
"@@@@@@@@@@$cMmmmmmmmmNe34437fssssssssssssssssssssssssssssssssssssssssssf73443eNmmmmmmmmMc$@@@@@@@@@@",
"@@@@@@@@@@$cMmmmmmmmmN, XXoX                                            XoXX ,NmmmmmmmmMc$@@@@@@@@@@",
"@@@@@@@@@@$cMmmmmmmmmN1O@@@@@@@@@@@@@@@@@@@@@@@@@@@@@@@@@@@@@@@@@@@@@@@@@@@@O1NmmmmmmmmMc$@@@@@@@@@@",
"@@@@@@@@@@$cMmmmmmmmmN1O@@@@@@@@@@@@@@@@@@@@@@@@@@@@@@@@@@@@@@@@@@@@@@@@@@@@O1NmmmmmmmmMc$@@@@@@@@@@",
"@@@@@@@@@@$cMmmmmmmmmN1O@@@@@@@@@@@@@@@@@@@@@@@@@@@@@@@@@@@@@@@@@@@@@@@@@@@@O1NmmmmmmmmMc$@@@@@@@@@@",
"@@@@@@@@@@$cMmmmmmmmmN1O@@@@@@@@@@@@@@@@@@@@@@@@@@@@@@@@@@@@@@@@@@@@@@@@@@@@O1NmmmmmmmmMc$@@@@@@@@@@",
"@@@@@@@@@@$cMmmmmmmmmN1O@@@@@@@@@@@@@@@@@@@@@@@@@@@@@@@@@@@@@@@@@@@@@@@@@@@@O1NmmmmmmmmMc$@@@@@@@@@@",
"@@@@@@@@@@$cMmmmmmmmmN1O@@@@@@@@@@@@@@@@@@@@@@@@@@@@@@@@@@@@@@@@@@@@@@@@@@@@O1NmmmmmmmmMc$@@@@@@@@@@",
"@@@@@@@@@@$cMmmmmmmmmN1O@@@@@@@@@@@@@@@@@@@@@@@@@@@@@@@@@@@@@@@@@@@@@@@@@@@@O1NmmmmmmmmMc$@@@@@@@@@@",
"@@@@@@@@@@$cMmmmmmmmmN1O@@@@@@@@@@@@@@@@@@@@@@@@@@@@@@@@@@@@@@@@@@@@@@@@@@@@O1NmmmmmmmmMc$@@@@@@@@@@",
"@@@@@@@@@@$cMmmmmmmmmN1O@@@@@@@@@@@@@@@@@@@@@@@@@@@@@@@@@@@@@@@@@@@@@@@@@@@@O1NmmmmmmmmMc$@@@@@@@@@@",
"@@@@@@@@@@$cMmmmmmmmmN1O@@@@@@@@@@@@@@@@@@@@@@@@@@@@@@@@@@@@@@@@@@@@@@@@@@@@O1NmmmmmmmmMc$@@@@@@@@@@",
"@@@@@@@@@@$cMmmmmmmmmN1O@@@@@@@@@@@@@@@@@@@@@@@@@@@@@@@@@@@@@@@@@@@@@@@@@@@@O1NmmmmmmmmMc$@@@@@@@@@@",
"@@@@@@@@@@$cMmmmmmmmmN1O@@@@@@@@@@@@@@@@@@@@@@@@@@@@@@@@@@@@@@@@@@@@@@@@@@@@O1NmmmmmmmmMc$@@@@@@@@@@",
"@@@@@@@@@@$cMmmmmmmmmN1O@@@@@@@@@@@@@@@@@@@@@@@@@@@@@@@@@@@@@@@@@@@@@@@@@@@@O1NmmmmmmmmMc$@@@@@@@@@@",
"@@@@@@@@@@$cMmmmmmmmmN1O@@@@@@@@@@@@@@@@@@@@@@@@@@@@@@@@@@@@@@@@@@@@@@@@@@@@O1NmmmmmmmmMc$@@@@@@@@@@",
"@@@@@@@@@@$cMmmmmmmmmN<X@@@+OOOOOOOOOOOOOOOOOOOOOOOOOOOOOOOOOOOOOOOOOOOO+@@@X<NmmmmmmmmMc$@@@@@@@@@@",
"@@@@@@@@@@$cMmmmmmmmmMa8009rxzzzzzzzzzzzzzzzzzzzzzzzzzzzzzzzzzzzzzzzzzzxr9008aMmmmmmmmmMc$@@@@@@@@@@",
"@@@@@@@@@@$cMmmmmmmmmmjuiiukBNNNNNNNNNNNNNNNNNNNNNNNNNNNNNNNNNNNNNNNNNNBkuiiujmmmmmmmmmMc$@@@@@@@@@@",
"@@@@@@@@@@$cMmmmmmmmmmjyuuyjmmmmmmmmmmmmmmmmmmmmmmmmmmmmmmmmmmmmmmmmmmmmjyuuyjmmmmmmmmmMc$@@@@@@@@@@",
"@@@@@@@@@@$cMmmmmmmmmmjyuuyjmmmmmmmmmmmmmmmmmmmmmmmmmmmmmmmmmmmmmmmmmmmmjyuuyjmmmmmmmmmMc$@@@@@@@@@@",
"@@@@@@@@@@$cMmmmmmmmmmjyuuyjmmmmmmmmmmmmmmmmmmmmmmmmmmmmmmmmmmmmmmmmmmmmjyuuyjmmmmmmmmmMc$@@@@@@@@@@",
"@@@@@@@@@@$cMmmmmmmmmmjyuuyjmmmmmmmmmmmmmmmmmmmmmmmmmmmmmmmmmmmmmmmmmmmmjyuuyjmmmmmmmmmMc$@@@@@@@@@@",
"@@@@@@@@@@$cMmmmmmmmmmjyuuyjmmmmmmmmmmmmmmmmmmmmmmmmmmmmmmmmmmmmmmmmmmmmjyuuyjmmmmmmmmmMc$@@@@@@@@@@",
"@@@@@@@@@@$cMmmmmmmmmmjyuuyjmmmmmmmmmmmmmmmmmmmmmmmmmmmmmmmmmmmmmmmmmmmmjyuuyjmmmmmmmmmMc$@@@@@@@@@@",
"@@@@@@@@@@$cMmmmmmmmmmjyuuyjmmmmmmmmmmmmmmmmmmmmmmmmmmmmmmmmmmmmmmmmmmmmjyuuyjmmmmmmmmmMc$@@@@@@@@@@",
"@@@@@@@@@@$cMmmmmmmmmmjyuuyjmmmmmmmmmmmmmmmmmmmmmmmmmmmmmmmmmmmmmmmmmmmmjyuuyjmmmmmmmmmMc$@@@@@@@@@@",
"@@@@@@@@@@$cMmmmmmmmmmjyuuyjmmmmmmmmmmmmmmmmmmmmmmmmmmmmmmmmmmmmmmmmmmmmjyuuyjmmmmmmmmmMc$@@@@@@@@@@",
"@@@@@@@@@@$cMmmmmmmmmmjyuuyjmmmmmmmmmmmmmmmmmmmmmmmmmmmmmmmmmmmmmmmmmmmmjyuuyjmmmmmmmmmMc$@@@@@@@@@@",
"@@@@@@@@@@$cMmmmmmmmmmjyuuyjmmmmmmmmmmmmmmmmmmmmmmmmmmmmmmmmmmmmmmmmmmmmjyuuyjmmmmmmmmmMc$@@@@@@@@@@",
"@@@@@@@@@@$cMmmmmmmmmmjyuuyjmmmmmmmmmmmmmmmmmmmmmmmmmmmmmmmmmmmmmmmmmmmmjyuuyjmmmmmmmmmMc$@@@@@@@@@@",
"@@@@@@@@@@$cMmmmmmmmmmjyuuyjmmmmmmmmmmmmmmmmmmmmmmmmmmmmmmmmmmmmmmmmmmmmjyuuyjmmmmmmmmmMc$@@@@@@@@@@",
"@@@@@@@@@@$cMmmmmmmmmmjuuuujNMMMMMMMMMMMMMMMMMMMMMMMMMMMMMMMMMMMMMMMMMMNjuuuujmmmmmmmmmMc$@@@@@@@@@@",
"@@@@@@@@@@$cMmmmmmmmmMdwwwwaccccccccccccccccccccccccccccccccccccccccccccawwwwdMmmmmmmmmMc$@@@@@@@@@@",
"@@@@@@@@@@$cMmmmmmmmmN2@####$$$$$$$$$$$$$$$$$$$$$$$$$$$$$$$$$$$$$$$$$$$$####@2NmmmmmmmmMc$@@@@@@@@@@",
"@@@@@@@@@@$cMmmmmmmmmN1O@@@@@@@@@@@@@@@@@@@@@@@@@@@@@@@@@@@@@@@@@@@@@@@@@@@@O1NmmmmmmmmMc$@@@@@@@@@@",
"@@@@@@@@@@$cMmmmmmmmmN1O@@@@@@@@@@@@@@@@@@@@@@@@@@@@@@@@@@@@@@@@@@@@@@@@@@@@O1NmmmmmmmmMc$@@@@@@@@@@",
"@@@@@@@@@@$cMmmmmmmmmN1O@@@@@@@@@@@@@@@@@@@@@@@@@@@@@@@@@@@@@@@@@@@@@@@@@@@@O1NmmmmmmmmMc$@@@@@@@@@@",
"@@@@@@@@@@$cMmmmmmmmmN1O@@@@@@@@@@@@@@@@@@@@@@@@@@@@@@@@@@@@@@@@@@@@@@@@@@@@O1NmmmmmmmmMc$@@@@@@@@@@",
"@@@@@@@@@@$cMmmmmmmmmN1O@@@@@@@@@@@@@@@@@@@@@@@@@@@@@@@@@@@@@@@@@@@@@@@@@@@@O1NmmmmmmmmMc$@@@@@@@@@@",
"@@@@@@@@@@$cMmmmmmmmmN1O@@@@@@@@@@@@@@@@@@@@@@@@@@@@@@@@@@@@@@@@@@@@@@@@@@@@O1NmmmmmmmmMc$@@@@@@@@@@",
"@@@@@@@@@@$cMmmmmmmmmN1O@@@@@@@@@@@@@@@@@@@@@@@@@@@@@@@@@@@@@@@@@@@@@@@@@@@@O1NmmmmmmmmMc$@@@@@@@@@@",
"@@@@@@@@@@$cMmmmmmmmmN1O@@@@@@@@@@@@@@@@@@@@@@@@@@@@@@@@@@@@@@@@@@@@@@@@@@@@O1NmmmmmmmmMc$@@@@@@@@@@",
"@@@@@@@@@@$cMmmmmmmmmN1O@@@@@@@@@@@@@@@@@@@@@@@@@@@@@@@@@@@@@@@@@@@@@@@@@@@@O1NmmmmmmmmMc$@@@@@@@@@@",
"@@@@@@@@@@$cMmmmmmmmmN1O@@@@@@@@@@@@@@@@@@@@@@@@@@@@@@@@@@@@@@@@@@@@@@@@@@@@O1NmmmmmmmmMc$@@@@@@@@@@"
};
