/* XPM */
static char *result[] = {
/* columns rows colors chars-per-pixel */
"100 100 68 1 ",
"  c #84C669",
". c #87CD70",
"X c #89D378",
"o c #89D276",
"O c #84C76A",
"+ c #88D074",
"@ c #88CF73",
"# c #8BD97E",
"$ c #8BD87D",
"% c #8AD77C",
"& c #85C86B",
"* c #8AD67B",
"= c #88D073",
"- c #8CD97E",
"; c #8BD77C",
": c #8AD478",
"> c #82C86E",
", c #81CA73",
"< c #81CA72",
"1 c #81CA71",
"2 c #84C66A",
"3 c #82C970",
"4 c #85C769",
"5 c #75B660",
"6 c #64A456",
"7 c #65A556",
"8 c #68A858",
"9 c #81C367",
"0 c #6EAE5B",
"q c #6DAE5B",
"w c #74B55F",
"e c #64A455",
"r c #76B760",
"t c #67A757",
"y c #6AAA59",
"u c #7FC166",
"i c #6FAF5C",
"p c #70B05C",
"a c #83C568",
"s c #7ABC63",
"d c #82C468",
"f c #7CBD64",
"g c #83C569",
"h c #7CBE64",
"j c #7BBD64",
"k c #79BA62",
"l c #80C166",
"z c #64A355",
"x c #6DAD5B",
"c c #71B25E",
"v c #7EBF65",
"b c #6AAB59",
"n c #85C86C",
"m c #86CB6F",
"M c #86CB6E",
"N c #86CA6E",
"B c #85CA6D",
"V c #87CF73",
"C c #89D377",
"Z c #7ABC65",
"A c #6FB260",
"S c #6FB361",
"D c #71B561",
"F c #75B863",
"G c #6FB360",
"H c #85C76A",
"J c #63A355",
"K c white",
/* pixels */
"                                                                                                    ",
"                                                                                                    ",
"                                                                                                    ",
"                                                                                                    ",
"                                                                                                    ",
"                                                                                                    ",
"            .XXXXXXXXXXXoO     +XXXXXXXXXXX+                                                        ",
"            @#$$$$$$$$$$%&     X#$$$$$$$$$#X                                                        ",
"            @$$$$$$$$$$$*&     X$$$$$$$$$$$X                                                        ",
"            @$$$$$$$$$$$*&     X$$$$$$$$$$$X                                                        ",
"            @$$$$$$$$$$$*&     X$$$$$$$$$$$X                                                        ",
"            @$$$$$$$$$$$*&     X$$$$$$$$$$$X                                                        ",
"            @$$$$$$$$$$$*&     X$$$$$$$$$$$X                                                        ",
"            @$$$$$$$$$$$*&     X$$$$$$$$$$$X                                                        ",
"            @$$$$$$$$$$$*&     X$$$$$$$$$$$X                                                        ",
"            @$$$$$$$$$$$*&     X$$$$$$$$$$$X                                                        ",
"            @$$$$$$$$$$$*&     X$$$$$$$$$$$X                                                        ",
"            =-----------;&     :-----------:                                                        ",
"            >,<<<<<<<<<<12     3,<<<<<<<<<,3                                                        ",
"           456777777777789     0677777777760                                                        ",
"           456777777777789     q67777777776q                                                        ",
"           456777777777789     q67777777776q                                                        ",
"           456777777777789     q67777777776q                                                        ",
"           4we777777777789     q67777777776q                                                        ",
"           4rt8888888888yu99999it888888888tp                                                        ",
"            a99999999999uy88888sd9999999999d                                                        ",
"                        9877777f4                                                                   ",
"                        9877777f4                                                                   ",
"                        9877777f4                                                                   ",
"                        9877777f4                                                                   ",
"                        9877777f4                                                                   ",
"                        ghjffffd                                                                    ",
"                         444444                                                                     ",
"                                                                                                    ",
"                                                                                                    ",
"                                                                                                    ",
"                                      444444      444444                                            ",
"                                     hw555wk     arw5555l                                           ",
"                                    4wz666ex     9te6666j4                                          ",
"                                    4567776q     9877777f4                                          ",
"                                    4567776q     9877777f4                                          ",
"                                    4567776q     9877777f4                                          ",
"                                    4we666eq44444dt66666j4                                          ",
"                                    4kxqqqqcjffffsiqqqq0v                                           ",
"                                          4j7777789                                                 ",
"                                          4f7777789                                                 ",
"                                          4f7777789                                                 ",
"                                          4f7777789                                                 ",
"                                          4j7777789                                                 ",
"                                          4h88888b9                                                 ",
"                                           g999999                                                  ",
"                                                                                                    ",
"                                                                                                    ",
"                                                                                                    ",
"                                                                                                    ",
"                                                                                                    ",
"                                                                                                    ",
"                                                                                                    ",
"                                                                                                    ",
"                                                                                                    ",
"                                                                                                    ",
"                                                                                                    ",
"                                                                                                    ",
"                                                                                                    ",
"                                                                                                    ",
"                                                                                                    ",
"                                                                                                    ",
"                                                                                                    ",
"                                                              nmMMMMMMMMMMN      BmMMMMMMMMMmB      ",
"                                                              V$$$$$$$$$$$*&     C$$$$$$$$$$$C      ",
"                                                              @$$$$$$$$$$$*&     X$$$$$$$$$$$X      ",
"                                                              @$$$$$$$$$$$*&     X$$$$$$$$$$$X      ",
"                                                              @$$$$$$$$$$$*&     X$$$$$$$$$$$X      ",
"                                                              @$$$$$$$$$$$*&     X$$$$$$$$$$$X      ",
"      d99999a     g999999                                     @$$$$$$$$$$$*&     X$$$$$$$$$$$X      ",
"      pt888tr4   4h88888b9                                    @$$$$$$$$$$$*&     X$$$$$$$$$$$X      ",
"      q6777ew4   4j7777789                                    @$$$$$$$$$$$*&     X$$$$$$$$$$$X      ",
"      q6777654   4f7777789                                    @$$$$$$$$$$$*&     X$$$$$$$$$$$X      ",
"      q6777654   4f7777789                                    @$$$$$$$$$$$*&     X$$$$$$$$$$$X      ",
"      q6777654   4f7777789                                    @$$$$$$$$$$$*&     X$$$$$$$$$$$X      ",
"      06777654   4j7777789                                    V$$$$$$$$$$$*&     C$$$$$$$$$$$C      ",
"      vjffff5qqqqqcjfffjhg                                    ZASSSSSSSSSSDd     FGSSSSSSSSSGF      ",
"       4444H5e666eq444444                                    4wJeeeeeeeeeet9     xzeeeeeeeeezx      ",
"           4567776q                                          456777777777789     q67777777776q      ",
"           4567776q                                          456777777777789     q67777777776q      ",
"           4567776q                                          456777777777789     q67777777776q      ",
"           4wz666ex                                          4wz666666666etdH4444qe666666666ex      ",
"            hw555wk                                           hw5555555555555555555555555555wk      ",
"             444444                                            4444444444Hdte6666fH44444444444      ",
"                                                                          9877777f4                 ",
"                                                                          9877777f4                 ",
"                                                                          9877777f4                 ",
"                                                                          9t66666j4                 ",
"                                                                          dpqqqq0v                  ",
"                                                                                                    ",
"                                                                                                    ",
"                                                                                                    ",
"                                                                                                    ",
"                                                                                                    ",
"                                                                                                    "
};
