/* XPM */
static char *result[] = {
/* columns rows colors chars-per-pixel */
"100 100 81 1 ",
"  c #3D232F",
". c #3F2631",
"X c #3F2A32",
"o c #412B33",
"O c #443335",
"+ c #413C36",
"@ c #473A38",
"# c #493D39",
"$ c #414037",
"% c #414738",
"& c #4B443C",
"* c #424A39",
"= c #4E493D",
"- c #504D3F",
"; c #42573B",
": c #435D3C",
"> c #495B3E",
", c #44633E",
"< c #504F42",
"1 c #535642",
"2 c #565C44",
"3 c #585F45",
"4 c #565C48",
"5 c #446F41",
"6 c #5A6447",
"7 c #5B6648",
"8 c #5C6B49",
"9 c #447041",
"0 c #457B43",
"q c #5E704D",
"w c #61764D",
"e c #637A4E",
"r c #657E50",
"t c #458544",
"y c #468C46",
"u c #598B4E",
"i c #469447",
"p c #469648",
"a c #479F4A",
"s c #489E4A",
"d c #5E9F53",
"f c #62824F",
"g c #668051",
"h c #688653",
"j c #6C8D55",
"k c #69865A",
"l c #6C8F5E",
"z c #6D935B",
"x c #709659",
"c c #719B5A",
"v c #47A04A",
"b c #4AA14C",
"n c #50A54F",
"m c #53A650",
"M c #56A852",
"N c #5DAD55",
"B c #60AF57",
"V c #76A55D",
"C c #63B158",
"Z c #6BB65C",
"A c #6FB95E",
"S c #70B95F",
"D c #75A567",
"F c #7AAE61",
"G c #77AB69",
"H c #79AD69",
"J c #7DB564",
"K c #74BC61",
"L c #7DBC65",
"P c #7CB56E",
"I c #7DC266",
"U c #80BE66",
"Y c #80C367",
"T c #84C669",
"R c #86C96B",
"E c #83C575",
"W c #86CC74",
"Q c #88CF73",
"! c #87CF79",
"~ c #89D479",
"^ c #8BD87D",
/* pixels */
"TTTTTTTTTTTTTTTTTTTTTTTTTTTTTTTTTTTTU6o .....................@gTTTTTTTTTTTTTTTTTTTTTTTTTTTTTTTTTTTTT",
"TTTTTTTTTTTTTTTTTTTTTTTTTTTTTTTTTTTTU4 o.....................@hTTTTTTTTTTTTTTTTTTTTTTTTTTTTTTTTTTTTT",
"TTTTTTTTTTTTTTTTTTTTTTTTTTTTTTTTTTTTU6 o.....................@hTTTTTTTTTTTTTTTTTTTTTTTTTTTTTTTTTTTTT",
"TTTTTTTTTTTTTTTTTTTTTTTTTTTTTTTTTTTTU6. ................X....@gTTTTTTTTTTTTTTTTTTTTTTTTTTTTTTTTTTTTT",
"TTTTTTTTTTTTTTTTTTTTTTEETTTTTTRTTRTTU6o......................@hTTTTTRRTRTTTTTTTTTTTTTTTTTTTTTTTTTTTT",
"TTTTTTTTTTTTTTTTTTTTTRRUUccxxccxxxxxr<.......................o8xxxxcxxxxxcVTTTTTTTTTTTTTTTTTTTTTTTTT",
"TTTTTTTTTTTTQ~~~~~~~~~!!U&###@##<##&#o.......................X@###########3UTTTTTTTTTTTTTTTTTTTTTTTT",
"TTTTTTTTTTTTQ^^^^^^^^^^^Doo.ooo  o.oo...........................o oooo..oo-UTTTTTTTTTTTTTTTTTTTTTTTT",
"TTTTTTTTTTTTQ^^^^^^^^^^!GO......  o ........X...................o .......o=UTTTTTTTTTTTTTTTTTTTTTTTT",
"TTTTTTTTTTTTQ^^^^^^^^^^^Go......o ..........XX..X.....X..................o=UTTTTTTTTTTTTTTTTTTTTTTTT",
"TTTTTTTTTTTTQ^^^^^^!^^^!GO..................XXXX......X....X.............o=UTTUTTTTTTTTTTTTTTTTTTTTT",
"TTTTTTTTTTTTQ^^^^^EUUPPPzo................oo%X$X++++%X$XX.................#hUUxUUUTTTTTTTTTTTTTTTTTT",
"TTTTTTTTTTTTQ^^^^!D44444<oo ....o ....o ..X%000000000005+.................o111112UTTTTTTTTTTTTTTTTTT",
"TTTTTTTTTTTTQ^^^^!lo....ooo ..............X;vvvvavvvvvvi+..................o..o.OxTTTTTTTTTTTTTTTTTT",
"TTTTTTTTTTTTQ^^^^!l...o  o  ..............o;aaaavasaaasi+...........o ..........#VTTTTTTTTTTTTTTTTTT",
"TTTTTTTTTTTTQ^^^^!l... o   o..............o<aaaaaaaaaasy+.......................#VTTTTTTTTTTTTTTTTTT",
"TTTTTTTTTTTTW^^^^~l............. o o.o....X;avaaaaaaaaayXXX.....o o.............oURUUUUUTTTTTTTTTTTT",
"TTTTTTTTTTTTTEEE!Uk...........oOOOOOOOOOOO@,aaaaaaaaaaay*@O@OO@oOOOOo...........OxUUUUUUTTTTTTTTTTTT",
"TTTTTTTTTTUUl88qqq<...........O8rrrrrrrrrrguaaaasaaaaaasfgrrrrrrrrrr1o ....... oo38878wUTTTTTTTTTTTT",
"TTTTTTTTTTTU3o................#VTTTTTTTTTTIZaaaavaaaaaanIRTTTTTTTRRUho...........o...oOhTTTTTTTTTTTT",
"TTTTTTTTTTTJ2.  ............. #VRTTTTTTTTTTZvsaaaaaaaaanKTTTTTTTTTRUr.................OhTTRTTTTTTTTT",
"TTTTTTTTTTTU4 oo.............o#VTTTTTTTTTTTZssaaaaaaaaanKTTTTTTTTTTUh.................OhTTTTTTTTTTTT",
"TTTTTTTTTTTJ4o  ..............#VRTTTTTTTTTIZssssaaaaaaanLWTTTTTTTTRUhoo...............OhTTTTTTTTTTTT",
"TTTTTTTTTTTJ2oo .........ooooo#VRTTTTTTTTTTZbvssbsbvbbsmKTTTTTTTTRRUroooooo.........ooOhTTTTTTTTTTTT",
"TTTTTTTTTTTU2oo ........@67777wJTTTTTTTTTTTKNCBBNCCNCNNCIRTTTTTTTTRUU377311o..........OhTTTTTTTTTTTT",
"TTTTTTTTTTTJ6  o........<HULUUUTTTTTTTTTTTTTYYYYTITTITTTTTTTTTTTTTURUUUUUUUo..........#rTTTTTTTTTTTT",
"TTTTTTTTTTTJ6o o.......o<URRTTTTTTTTTTTTTTTTTTTTTTTTTTTTTTTTTTTTTTTTUTTTUUjo..........@rTTTTTTTTTTTT",
"TTTTTTTTTTTJ3o  .......X<LTTTTTTTTTTTTTTTTTTTTTTTTTTTTTTTTTTTTTTTTTTTTTTRUUo.........o@hTTTTTTTTTTTT",
"TTTTTTTTTTTJ7o o.......o=UTTTTTTTTTTTTTTTTTTTTTTTTTTTTTTTTTTTTTTTTTTRURURRU ..........OrTTTTTTTTTTTT",
"TTTTTTTTTTTJ7  o.......X-UTTTTTTTTTTTTTTTTTTTTTTTTTTTTTTTTTTTTTTTTTTRRRRRUUo..........@hRRTTTTTTTTTT",
"TTTTTUVxxxxj-oo .......X-UTTTTTTTTTTTTTTTTTTTTTTTTTTTTTTTTTTTTTTTTURRURRUUho..........O8xxccxUTTTTTT",
"TTTTTJ2#&#&#Oo o.......X-JTTTTTTTTTTTTTTTTTTTTTTTTTTTTTTTTTTTTTTTRRRRRUUUUUo..........o@=####8TTTTTT",
"TTURUU=......... oo    o-UTTTTTTTTTTTTTTTTTTTTTTTTTTTTTTTTTTTTTTTTTTTTTTTYcOo   o ..........o6TTTTTT",
"TRRRUU=.........o   oo o-UTTTTTTTTTTTTTTTTTTTTTTTTTTTTTTTTTTTTTTTTTTTTTTTTcO oo o ..........o6TTTTTT",
"TTUUUU=......... . o   o-UTTTTTTTTTTTTTTTTTTTTTTTTTTTTTTTTTTTTTTTTTTTTTTTTVo   o  ..........o7RTTTTT",
"TTUUUU=...........o   oo=UTTTTTTTTTTTTTTRTTTTTTTTTTTTTTTTTTTTTTTTTTTTTTTTTVoo  o oo.........O7TTTTTT",
"UUUUUj#.......... O#&&&&>UTTTTTTTTTTTTTTTTTTTTTTTTTTTTTTTTTTTTTTTTTTTTTTTUV-#&&&#o.......o..o3xUVVVF",
"--=O1-o..........o1xxxxxUUTTTTTTTTTTTTTTTTTTTTTTTTTTTTTTTTTTTTTTTTTTTTTTTTUcxxxxh@ o........o#-12128",
"..  ............oo7RTRTTTTTTTTTTTTTTTTTTTTTTTTTTTTTTTTTTTTTTRTTTTTTTTTTTTTTTTTRRU# ................&",
"..  .......o.....o7RTTTTTTTTTTTTTTTTTTTTTTTTTTTTTTTTTTTRTTTTTTTTTTTTRTTTTTTTTTTTU= ...............X&",
".................o7URTTTTTTTTTTTTTTTTTTTTTTTTTTTTTTTRTTTTTTTTTTTTTTTTTTTTTTTTTTTV#.o...............&",
"...............o.o6URTTTTTTTTTTTTTTTTTTTTTTTTTTTTTTTTTTTTTTTTTTTTTTTTTTTTTTTTTTTU@ ..o.............=",
"...........oo@OOO#8UTTTTTTTTTTTTTTTTTTTTTTTTTTTTTTTTTTTTTTTTTTTTTTTTTTTTTTTTTTTTU<OOOOOo...........&",
".........o.o1rrrerUUTTTTTTTTTTTTTTTTTTTTTTTTTTTTTTTTTTTTTTTTTTTTTTTTTTTTTTTTTTTTUjeerrw=........o .&",
"...........OhRTTTTTTTTTTTTTTTTTTTTTTTTTTTTTTTTTTTTTTTTTTTTRRTTTTTTTTTTTTTTTTTTTTUUTTTTU6 ..........&",
"...........ohRTTTTTTTTTTTTTTTTTTTTTTTTTTTTTTTTTTTTTTTTTTTTTUTTTTTTTTRTTTTTTTTTTTRRTTTTU6 ..........=",
"..........oOhRTTTTTTTTTTTTTTTTTTTTTTRTTTTTTTTTTTTTTTTTTTTTTRTTTTTTTTTTTTTTTTRTTTTTTTTTU6 ..........&",
"...........OhRTTTTTTTTTTTTTTTTTTTTTTTTTTTTTTTTTTTTTTTTTTTTTTTTTTTTTTTTTTTTTTTTTTTTTTTTU6 ..........&",
"..o........OrUUUTTTTTTTTTYYYYTYTTYTTYTTTTTTTTTTTTTTTTTTTTTTTTTTTTTTTTTTTTTTTTTTTTTTTTTU6 ..........&",
"...........OUUUUTTTTTTRTUZZAZZZZZZZZZYTTTTTTTTTTTTTTTTTTRTTTTTTTTTTTTTTTTTTTTTTTTTTTTTU6 ..........=",
"...........OURRRTTTTTTTRSnbbbbbbvbbbnZTTTTTTTTTTTTTTTTTTTTTTTTTTTTTTTTTTTTTTTTTTTTTTTTU6 ..........&",
".........o o8RURTTTTTTTYKbvvaaaassssbZRTTTTTTTTTTTTTTTTTTTTTTTTTTTTTTTTTTTTTTTTTTTTTTTU7 ..........&",
"...........OrRURTTTTTTRTKnaaaaaasaaabZRTTTTTTTTTTTTTTTTTTTTTTTTTTTTTTTTTTTTTTTTTTTTTTTU7 ..........&",
"...........OrRURTTTTTTTYSbaaaaaavaaabZRTTTTTTTTTTTTTTTTTTTTTTTTTTTTTTTTTTTTTTTTTTTTTTTL6 ..........&",
"...........OhRRRTTTTTTTTKbaaaaaaaaaabSRTTTTTTTTTTTTTTTTRTTTTTTTTTTTTTTTTTTTTTTTTTTTTTTU6 ..........&",
"...........OhRRRTTTTTTTYKnaaaaaaaaaabZRTTTTTTTTTTTTTTTTUKKSKKLUTTTTTTTTTTTTTTTTTTTTTTTL6 ..........=",
"....... ...OhRRUTTTTTTTTSbaaaassaasavZRRTTTTTTTTTTTTTTTYNnbnnMSTTTTTTTTTTTTTTTTTTTTTTTU6 ..........&",
".......o...OhRRRTTTTTTTYSbaaaavvaaaabZTTTTTTTTTTTTTTTTTKnaaaasZTTTTTTTTTTTTTTTTTTTTTTTU6 ..........=",
"......o ...OhRRUTTTTTTTTIbaaaassvaaabZRTTTTTTTTTTTTTTTTInasasbZRTTTTTTTTTTTTTTTTTTTTTTU3 ..........&",
"......  ...ohRRRTTTTTTTTSbaaaavsaaaabSTTTTTTTTTTTTTTTTYIMsaasbARTTTTTTTTTTTTTTTTTTTTTTU6 .........X&",
"o...  oo ooOhRRRRTTTTTTTLbvvbvsvabvvbSRTTTTTTTTTTTTTTTTLnasssbZRTTTTTTTTTTTTTTTTTTTTTRU6 o.........&",
" ...o   o oOrUUUUSUTTTTTKMmmmmnnnnnmMSTTTTTYLIKIKYTTTTTYNnnMnMSRTTTTTTTTTTTTTTTTYILISUS6 .........X&",
".... o o  oO,NdBNNZTTTTTYSSSSSSSSSSSSUTTTTTSNMNMMCYTTTTTKSSSSSYTTTTTTTTTTTTTTTTTICmMMMd>...........&",
".... o   oo$,assvvNTTTTTRRRRRRRRRRRRRTTTTTYZavssvMYTTTTTRRRRRTTTTTTTTTTTTTTTTTTTImassai; ..........=",
"..o .......O,vaaavNTTTTTTRTTTTTTTTTTTTTTTTTZsvsvvMTTTTTTTTTTTTTTTTTTTTTTTTTTTTTTInsvavi; oo  o  ...&",
"...........X0vvsavCTTTTTTTTTTTTTTTTTTTTTTTTZsvssvMITTTTTTTTTTTTTTTTTTTTTTTTTTTTTInasavi;o   o  o...&",
"........X.XX9vvssbNTRTTTTRTRTRTTTTTTTTTTTTIZbvsssMITTTTTTTTTTTTTTTTTTRTTRTTRTRTRInaaavp; o o.. o.X.&",
"........XXXX9vvvsbBIIIIIIIIIIIITTTTTTTTTTTTAbbbbbNTTTTTTTTTTTTTTTTTTTIIIYIIIIIIIKnaavvp;o o ... ...=",
"...........X9vaavsbCCCBCCCCCCCZITTTTTTTTTTTKZZCZZATTTTTTTTTTTTTTTTTYKCCCBBBCBCCBBnaaavp;...........&",
"...........X5vaavsaavvavaaaavsnKTTTTTTTTTTTTTTTTYTTTTTTTTTTTTTTTTTTTZvssaavvvsvvssaaaap;......o....&",
".....o....XX5vaaaaasvsvsaaaaavnKRTTTTTTTTTTTTTTTTTTTTTTTTTTTTTTTTTTTZssvvassvsssaaaaavp; ..... ....&",
".........XXX9vasaaaavsssaaaaavmKRTTTTTTTTTTTTTTTTTTTTTTTTTTTTTTTTTTIZvssssvsvsvsvaaaavp;...........=",
"...........o9vvvasvaaaaaaaaaaamKTTTTTTRTTTTTTTTTTTTTTTTRTTTTTTTTTTTTZaaaaaaavsssaaaavvp; ..........&",
"..........oo9vssaaaaaaaaaaaaaamKTTTTTIITYTYTTYTYTYYTYTTIYTTYYTTTTYTIZaaaaasvvvvvvaaavvp; ..........&",
"........o  o0vaaaaaaaaaaaaavaabCZZZZZZZZZZZZZZZZZZZZZZZZZZZZZZZZZZZZNsaavvbNBBBBNbsavvp;...........=",
"........ ooo,vaaaaaaaaaaaaasaasbbbvvbbbbbbbbbvbvbbbvbbvvbbbvbvvvbbbvvasasvMITYYYInavsvp; ..........&",
".......o ooo,vvvaaaaaaaaaaaaaaaaaaaavsaavvssaaaavvaaaaasvvaaaaaavvaaaaaasvMYTTTTImsvsvi;..........X&",
"........  oo,vvvaaavasvaaaaaaaaaaaaaaaaavsaaaaaassaaavaavsaaaaaavsaaaaaasvMITTTTKMassvp;...........&",
"........o .o0vvvaaaaaaaaavaaaasvaaaaaaaaaavaaavavvsaaaaasssaaaavsvaaaavavvMTTTTTInaasvi; .........X&",
"........ o.o,nvvaaaaaaaaaaaaaaaaaaaaaaaaaaaaaaaassaaaaaasvsvaaaassaaaaaasvMITTTTInaavvi=...........&",
".........XXX9vasaaaaaaaaaaaaaaaaaaaasvaaaaaaaaaavbMMMMMMNMNMMNbaaaaaaaaavvmSSSSSZnssavi; .o   o ...&",
".........XXX5vavaaaaaaaaavaaavaaaaaaaaaaaaaaaaaabMKIIIIIIKIIISNasaaaaaaasvvbmmmbnsaaavp; . oo  o...&",
"...........X9vssaasvaaaaaasaaaaaaaaaaaaaaaavaaavvMYRRTRTTTTRTYBavaaavaaasvaavvaaaaaaaai;o o    o..X&",
"..........XX9vvsaaaaaaaaaaaaaaaaaaavaaaaaaaaaaasvMYTTTTTTTTTTYNaaaaaaaaaasaaavaaaaaaavp; o ooo  ...=",
"..X........X9vvvaaaaaaaaaaaaaaaaaaaaaaaasaaaaaaabMYTTTTTTTTTTYBaaaaavaaaavaaaaaaaaaasvi;.... ......&",
"..........XX9vvvvvaaaaaavaaaaasaaaaaaaaaaaaaaaaavMYTTTTTTTTTYYBvaaaasaaaasaaaaaaavvvvva;....o .....&",
"..........XO,yyyyyiaaasaaaaaaavaaaaaaaaaaaaaaaaabMYTTTTTTTTTTYNaaaaaaaaaaaaaaaaapitytyt; ..........=",
"...........X+%%%%*5aaaaaaaaaaaaaaaavsaaaaavaaaaavMYTTTTTTTTTTYNaaaaaaaaaaaaaaaaai:%***%X...........&",
"...............  X;saaaaaasaaaaaaaaasaaaaaaaaaaavMYTTTTTTTTTTYBaasaaaaavaaaaaaaay@ .  .............&",
"................ X;saaaaaavsaaaaaaaaaaaaaaaaaaaabMYTTTTTTTTTTYNaavaaaaaavsaaaaaay@.................&",
"................oX;vaaaaaaasaaavavaaavaaasaaavaasMTTTTTTTTTTTYCaaaaaaaaassssaasay# ................&",
"................ X;vavvavvbsavvaaaaaaaaaavaaaaaabMITTTTTTTTTTYNvaaaaaavvvvvsvvvvy+.................&",
"@@@@@@X ........oX;ippppipppiipaaaaaaavaaaaaaasabMIIIIITIIIYYKNaaaaaapiippipipiit+..........ooOO@@@1",
"egeeeq@......... o+:::::::::::,ivaaaaaaaaaaaaavasbBBCCCCCCCCCBnaaaaat;::::::::::;O..........o<regeej",
"TTTTTF=................. X..XXXyvvaaasaaaaaaaaaavsaaaasvaavsvvaaaava,oo ...................oO7TTTTTT",
"TTTTTF=.................. . XXXyvaaaaaaaaaaaaaasvsaaavssaassvsaavsvv, o ...................oo6TTTTTT",
"TTTTTJ& o o   o ..............Xyvvvvvaaaaaaaaaaaaaaaaaaaaaaaaaaaaaaa,O................X.....o7TTTTTT",
"TTTTTF=o o oo  o. .... o.....XXivvvvssaaaaaaaaaaaaaaaaasaaaaaaaaaaap,o................ X....O7TTTTTT",
"TTTTTF&ooooo o ooooo.o o.o..X Xtvvvasvvvavvsasaaaaassvsvaavasaassssa,o o............... ....o8TTTTTT",
"TTTTTJe64623363363363663366378qzBNNNBNBNNNBBNBBNBBNBNBNBNBBNBNBBNNBNu666766666666666666666667jTTTTTT"
};
